<svg width="32" height="32" viewBox="0 0 32 32" fill="none" xmlns="http://www.w3.org/2000/svg">
<path d="M6.53605 25.8677H20.1761" stroke="#FCFEFF" stroke-linecap="round"/>
<path d="M24.1548 25.8677H25.7623" stroke="#FCFEFF" stroke-linecap="round"/>
<path d="M16.1972 15.6375V11.0908" stroke="#2D2C2A" stroke-linecap="round"/>
<path d="M24.5256 15.9627C25.532 14.4001 26.2839 13.3099 26.2839 11.7177C26.2839 10.1255 25.3721 6.24012 25.3721 6.24012C25.3721 6.24012 21.8728 5.71436 20.2806 5.71436C18.6884 5.71436 17.372 6.56014 16.0356 7.47269C16.0356 7.47269 10.6291 10.7453 9.28561 14.2227C8.08928 17.3191 9.28561 22.7227 9.28561 22.7227C9.28561 22.7227 14.6901 23.9212 17.7856 22.7227C21.2621 21.3768 24.5256 15.9627 24.5256 15.9627Z" stroke="#2D2C2A" stroke-linecap="round" stroke-linejoin="round"/>
<path d="M20.2856 11.7227L6.28564 25.7227" stroke="#2D2C2A" stroke-linecap="round" stroke-linejoin="round"/>
<path d="M18.172 18.8799H13.372" stroke="#2D2C2A" stroke-linecap="round" stroke-linejoin="round"/>
</svg>
