<svg width="32" height="33" viewBox="0 0 32 33" fill="none" xmlns="http://www.w3.org/2000/svg">
<path d="M6.99981 10.6001H20.9998C20.9998 10.8867 21.3428 14.6001 20.9457 17.677C20.5151 21.0162 17.5695 22.6001 13.9998 22.6001C10.4301 22.6001 7.48455 21.0162 7.05397 17.677C6.65698 14.6001 6.99981 10.8867 6.99981 10.6001Z" stroke="black" stroke-width="0.5"/>
<path d="M18.9036 21.6001C18.9036 21.6479 19.1439 22.2668 18.8657 22.7796C18.564 23.3361 15.927 24.1001 14 24.1001C12.073 24.1001 9.4359 23.3361 9.13426 22.7796C8.85617 22.2668 9.09632 21.6479 9.09632 21.6001" stroke="black" stroke-width="0.5" stroke-linecap="round"/>
<path d="M21 11.6133C21.7053 11.5913 22.6723 11.5867 23.5385 11.6807C25.2081 11.8617 26 13.0997 26 14.6001C26 16.1005 25.2081 17.3386 23.5385 17.5195C22.6723 17.6135 21.7053 17.6089 21 17.5869" stroke="black" stroke-width="0.5"/>
</svg>
