<svg width="32" height="32" viewBox="0 0 32 32" fill="none" xmlns="http://www.w3.org/2000/svg">
<rect width="32" height="32" fill="#FEFCF9"/>
<path d="M23.3309 11.8815L23.4442 11.9947C24.0508 12.6014 24.3916 13.4242 24.3916 14.282C24.3916 15.1399 24.0508 15.9627 23.4442 16.5694L16.5791 23.4314C16.2786 23.732 15.9218 23.9704 15.5291 24.1331C15.1364 24.2958 14.7155 24.3795 14.2904 24.3795C13.8654 24.3795 13.4445 24.2958 13.0518 24.1331C12.6591 23.9704 12.3023 23.732 12.0018 23.4314L11.8885 23.3182L11.3983 26.0908C11.347 26.3824 11.2167 26.6543 11.0216 26.8769C10.8265 27.0995 10.574 27.2643 10.2917 27.3534C10.0093 27.4425 9.70796 27.4524 9.42037 27.3821C9.13278 27.3118 8.87 27.164 8.66064 26.9547L5.04606 23.3408C4.83672 23.1315 4.68882 22.8688 4.61849 22.5813C4.54816 22.2937 4.55809 21.9924 4.6472 21.7101C4.73631 21.4279 4.90118 21.1754 5.12385 20.9804C5.34653 20.7853 5.61847 20.655 5.91007 20.6038L8.68491 20.1153L8.57004 20.0004C8.26941 19.7 8.03093 19.3433 7.86823 18.9506C7.70552 18.558 7.62178 18.1372 7.62178 17.7123C7.62178 17.2873 7.70552 16.8665 7.86823 16.4739C8.03093 16.0813 8.26941 15.7245 8.57004 15.4241L15.4335 8.56207C15.734 8.26151 16.0908 8.02308 16.4835 7.86041C16.8762 7.69774 17.2971 7.61401 17.7222 7.61401C18.1472 7.61401 18.5681 7.69774 18.9608 7.86041C19.3535 8.02308 19.7103 8.26151 20.0108 8.56207L20.1241 8.6753L20.6143 5.90752C20.6658 5.61592 20.7964 5.34406 20.9918 5.12156C21.1873 4.89906 21.44 4.73446 21.7226 4.64569C22.0051 4.55692 22.3066 4.54739 22.5942 4.61815C22.8818 4.6889 23.1445 4.83722 23.3536 5.04693L26.9584 8.66236C27.1669 8.87188 27.314 9.13449 27.3837 9.42168C27.4534 9.70887 27.4431 10.0097 27.3539 10.2914C27.2647 10.5732 27.1 10.8251 26.8776 11.0199C26.6553 11.2146 26.3839 11.3448 26.0928 11.3962L23.3309 11.8815ZM9.45669 16.9042H18.7039L19.2556 18.2067L22.2986 15.4241C22.5974 15.1263 22.7676 14.7233 22.7727 14.3015H11.9807L9.71395 16.5694C9.61338 16.6692 9.52634 16.7818 9.45507 16.9042H9.45669ZM9.45669 18.5219C9.52626 18.6416 9.61202 18.7532 9.71395 18.8567L13.1457 22.2878C13.4491 22.591 13.8606 22.7614 14.2896 22.7614C14.7186 22.7614 15.1301 22.591 15.4335 22.2878L19.2018 18.5219H9.45669ZM21.8456 12.6838L18.8669 9.70574C18.5635 9.40248 18.152 9.23212 17.723 9.23212C17.2939 9.23212 16.8825 9.40248 16.5791 9.70574L13.5987 12.6838H21.8456ZM6.18998 22.1972L9.80456 25.811L10.4194 22.333C10.4374 22.2306 10.4304 22.1252 10.399 22.026C10.3676 21.9268 10.3128 21.8366 10.2391 21.7631C10.1654 21.6896 10.0751 21.635 9.97579 21.6038C9.87648 21.5726 9.77112 21.5659 9.66865 21.5841L6.18998 22.1972ZM22.208 6.18899L21.5932 9.66368C21.5753 9.76602 21.5823 9.87116 21.6136 9.97023C21.6449 10.0693 21.6996 10.1594 21.7731 10.2328C21.8465 10.3063 21.9366 10.361 22.0357 10.3923C22.1348 10.4236 22.24 10.4306 22.3423 10.4127L25.8129 9.80442L22.2064 6.18899H22.208Z" fill="#2D2C2A"/>
<g filter="url(#filter0_d_1_94)">
<rect x="25.8018" y="26.3691" width="30.2281" height="1.70501" rx="0.852506" transform="rotate(-135 25.8018 26.3691)" fill="#2D2C2A"/>
</g>
<defs>
<filter id="filter0_d_1_94" x="4.78042" y="4.14209" width="21.8738" height="23.579" filterUnits="userSpaceOnUse" color-interpolation-filters="sRGB">
<feFlood flood-opacity="0" result="BackgroundImageFix"/>
<feColorMatrix in="SourceAlpha" type="matrix" values="0 0 0 0 0 0 0 0 0 0 0 0 0 0 0 0 0 0 127 0" result="hardAlpha"/>
<feOffset dy="1.70501"/>
<feComposite in2="hardAlpha" operator="out"/>
<feColorMatrix type="matrix" values="0 0 0 0 0.996078 0 0 0 0 0.988235 0 0 0 0 0.980392 0 0 0 1 0"/>
<feBlend mode="normal" in2="BackgroundImageFix" result="effect1_dropShadow_1_94"/>
<feBlend mode="normal" in="SourceGraphic" in2="effect1_dropShadow_1_94" result="shape"/>
</filter>
</defs>
</svg>
