<svg width="32" height="33" viewBox="0 0 32 33" fill="none" xmlns="http://www.w3.org/2000/svg">
<circle cx="14.2427" cy="21.4285" r="1.75" stroke="black" stroke-width="0.5"/>
<path d="M17.0711 7.42846V18.6002C17.6305 19.1596 18.0115 19.8723 18.1658 20.6482C18.3202 21.4242 18.2409 22.2284 17.9382 22.9593C17.6354 23.6902 17.1228 24.3149 16.465 24.7545C15.8072 25.194 15.0338 25.4286 14.2427 25.4286C13.4516 25.4286 12.6782 25.194 12.0204 24.7545C11.3626 24.3149 10.8499 23.6902 10.5472 22.9593C10.2444 22.2284 10.1652 21.4242 10.3195 20.6482C10.4739 19.8723 10.8548 19.1596 11.4142 18.6002V7.42846" stroke="black" stroke-width="0.5"/>
<path d="M14.2427 19.4285V7.42847" stroke="black" stroke-width="0.5"/>
<path d="M19 9.6001H22" stroke="black" stroke-width="0.5"/>
<path d="M19 12.6001H22" stroke="black" stroke-width="0.5"/>
<path d="M19 15.6001H22" stroke="black" stroke-width="0.5"/>
</svg>
